<!DOCTYPE svg PUBLIC "-//W3C//DTD SVG 1.1//EN" "http://www.w3.org/Graphics/SVG/1.1/DTD/svg11.dtd">
<!-- Uploaded to: SVG Repo, www.svgrepo.com, Transformed by: SVG Repo Mixer Tools -->
<svg width="800px" height="800px" viewBox="0 0 48 48" xmlns="http://www.w3.org/2000/svg" fill="#000000">
<g id="SVGRepo_bgCarrier" stroke-width="0"/>
<g id="SVGRepo_tracerCarrier" stroke-linecap="round" stroke-linejoin="round" stroke="#CCCCCC" stroke-width="1.9200000000000004">
<defs>
<style>.a{fill:none;stroke:#ffffff;stroke-linecap:round;stroke-linejoin:round;}</style>
</defs>
<path class="a" d="M5.5,22.9722h0a8.7361,8.7361,0,0,0,8.7361,8.7361h2.0556v2.0556A8.7361,8.7361,0,0,0,25.0278,42.5h0V22.9722Z"/>
<path class="a" d="M14.2361,14.2361h0a8.7361,8.7361,0,0,0,8.7361,8.7361h2.0556v2.0556a8.7361,8.7361,0,0,0,8.7361,8.7361h0V14.2361Z"/>
<path class="a" d="M22.9722,5.5h0a8.7361,8.7361,0,0,0,8.7361,8.7361h2.0556v2.0556A8.7361,8.7361,0,0,0,42.5,25.0278h0V5.5Z"/>
</g>
<g id="SVGRepo_iconCarrier">
<defs>
<style>.a{fill:none;stroke:#ffffff;stroke-linecap:round;stroke-linejoin:round;}</style>
</defs>
<path class="a" d="M5.5,22.9722h0a8.7361,8.7361,0,0,0,8.7361,8.7361h2.0556v2.0556A8.7361,8.7361,0,0,0,25.0278,42.5h0V22.9722Z"/>
<path class="a" d="M14.2361,14.2361h0a8.7361,8.7361,0,0,0,8.7361,8.7361h2.0556v2.0556a8.7361,8.7361,0,0,0,8.7361,8.7361h0V14.2361Z"/>
<path class="a" d="M22.9722,5.5h0a8.7361,8.7361,0,0,0,8.7361,8.7361h2.0556v2.0556A8.7361,8.7361,0,0,0,42.5,25.0278h0V5.5Z"/>
</g>
</svg>